<svg width="308" height="108" viewBox="0 0 308 108" fill="none" xmlns="http://www.w3.org/2000/svg">
<path d="M42.7417 28.96L26.1817 60.856V79H17.9737V60.856L1.34172 28.96H10.4857L22.0777 53.512L33.6697 28.96H42.7417ZM66.4635 79.648C62.7195 79.648 59.3355 78.808 56.3115 77.128C53.2875 75.4 50.9115 73 49.1835 69.928C47.4555 66.808 46.5915 63.208 46.5915 59.128C46.5915 55.096 47.4795 51.52 49.2555 48.4C51.0315 45.28 53.4555 42.88 56.5275 41.2C59.5995 39.52 63.0315 38.68 66.8235 38.68C70.6155 38.68 74.0475 39.52 77.1195 41.2C80.1915 42.88 82.6155 45.28 84.3915 48.4C86.1675 51.52 87.0555 55.096 87.0555 59.128C87.0555 63.16 86.1435 66.736 84.3195 69.856C82.4955 72.976 79.9995 75.4 76.8315 77.128C73.7115 78.808 70.2555 79.648 66.4635 79.648ZM66.4635 72.52C68.5755 72.52 70.5435 72.016 72.3675 71.008C74.2395 70 75.7515 68.488 76.9035 66.472C78.0555 64.456 78.6315 62.008 78.6315 59.128C78.6315 56.248 78.0795 53.824 76.9755 51.856C75.8715 49.84 74.4075 48.328 72.5835 47.32C70.7595 46.312 68.7915 45.808 66.6795 45.808C64.5675 45.808 62.5995 46.312 60.7755 47.32C58.9995 48.328 57.5835 49.84 56.5275 51.856C55.4715 53.824 54.9435 56.248 54.9435 59.128C54.9435 63.4 56.0235 66.712 58.1835 69.064C60.3915 71.368 63.1515 72.52 66.4635 72.52ZM131.098 39.328V79H122.89V74.32C121.594 75.952 119.89 77.248 117.778 78.208C115.714 79.12 113.506 79.576 111.154 79.576C108.034 79.576 105.226 78.928 102.73 77.632C100.282 76.336 98.3375 74.416 96.8975 71.872C95.5055 69.328 94.8095 66.256 94.8095 62.656V39.328H102.946V61.432C102.946 64.984 103.834 67.72 105.61 69.64C107.386 71.512 109.81 72.448 112.882 72.448C115.954 72.448 118.378 71.512 120.154 69.64C121.978 67.72 122.89 64.984 122.89 61.432V39.328H131.098Z" fill="#E3E5EB"/>
<path d="M139.047 53.8C139.047 48.856 140.151 44.44 142.359 40.552C144.615 36.616 147.663 33.568 151.503 31.408C155.391 29.2 159.735 28.096 164.535 28.096C170.151 28.096 175.071 29.536 179.295 32.416C183.519 35.296 186.471 39.28 188.151 44.368H176.559C175.407 41.968 173.775 40.168 171.663 38.968C169.599 37.768 167.199 37.168 164.463 37.168C161.535 37.168 158.919 37.864 156.615 39.256C154.359 40.6 152.583 42.52 151.287 45.016C150.039 47.512 149.415 50.44 149.415 53.8C149.415 57.112 150.039 60.04 151.287 62.584C152.583 65.08 154.359 67.024 156.615 68.416C158.919 69.76 161.535 70.432 164.463 70.432C167.199 70.432 169.599 69.832 171.663 68.632C173.775 67.384 175.407 65.56 176.559 63.16H188.151C186.471 68.296 183.519 72.304 179.295 75.184C175.119 78.016 170.199 79.432 164.535 79.432C159.735 79.432 155.391 78.352 151.503 76.192C147.663 73.984 144.615 70.936 142.359 67.048C140.151 63.16 139.047 58.744 139.047 53.8ZM194.169 58.912C194.169 54.88 194.961 51.304 196.545 48.184C198.177 45.064 200.361 42.664 203.097 40.984C205.881 39.304 208.977 38.464 212.385 38.464C215.361 38.464 217.953 39.064 220.161 40.264C222.417 41.464 224.217 42.976 225.561 44.8V39.112H235.713V79H225.561V73.168C224.265 75.04 222.465 76.6 220.161 77.848C217.905 79.048 215.289 79.648 212.313 79.648C208.953 79.648 205.881 78.784 203.097 77.056C200.361 75.328 198.177 72.904 196.545 69.784C194.961 66.616 194.169 62.992 194.169 58.912ZM225.561 59.056C225.561 56.608 225.081 54.52 224.121 52.792C223.161 51.016 221.865 49.672 220.233 48.76C218.601 47.8 216.849 47.32 214.977 47.32C213.105 47.32 211.377 47.776 209.793 48.688C208.209 49.6 206.913 50.944 205.905 52.72C204.945 54.448 204.465 56.512 204.465 58.912C204.465 61.312 204.945 63.424 205.905 65.248C206.913 67.024 208.209 68.392 209.793 69.352C211.425 70.312 213.153 70.792 214.977 70.792C216.849 70.792 218.601 70.336 220.233 69.424C221.865 68.464 223.161 67.12 224.121 65.392C225.081 63.616 225.561 61.504 225.561 59.056ZM260.822 79.648C257.558 79.648 254.63 79.072 252.038 77.92C249.446 76.72 247.382 75.112 245.846 73.096C244.358 71.08 243.542 68.848 243.398 66.4H253.55C253.742 67.936 254.486 69.208 255.782 70.216C257.126 71.224 258.782 71.728 260.75 71.728C262.67 71.728 264.158 71.344 265.214 70.576C266.318 69.808 266.87 68.824 266.87 67.624C266.87 66.328 266.198 65.368 264.854 64.744C263.558 64.072 261.47 63.352 258.59 62.584C255.614 61.864 253.166 61.12 251.246 60.352C249.374 59.584 247.742 58.408 246.35 56.824C245.006 55.24 244.334 53.104 244.334 50.416C244.334 48.208 244.958 46.192 246.206 44.368C247.502 42.544 249.326 41.104 251.678 40.048C254.078 38.992 256.886 38.464 260.102 38.464C264.854 38.464 268.646 39.664 271.478 42.064C274.31 44.416 275.87 47.608 276.158 51.64H266.51C266.366 50.056 265.694 48.808 264.494 47.896C263.342 46.936 261.782 46.456 259.814 46.456C257.99 46.456 256.574 46.792 255.566 47.464C254.606 48.136 254.126 49.072 254.126 50.272C254.126 51.616 254.798 52.648 256.142 53.368C257.486 54.04 259.574 54.736 262.406 55.456C265.286 56.176 267.662 56.92 269.534 57.688C271.406 58.456 273.014 59.656 274.358 61.288C275.75 62.872 276.47 64.984 276.518 67.624C276.518 69.928 275.87 71.992 274.574 73.816C273.326 75.64 271.502 77.08 269.102 78.136C266.75 79.144 263.99 79.648 260.822 79.648ZM296.528 47.392V66.688C296.528 68.032 296.84 69.016 297.464 69.64C298.136 70.216 299.24 70.504 300.776 70.504H305.456V79H299.12C290.624 79 286.376 74.872 286.376 66.616V47.392H281.624V39.112H286.376V29.248H296.528V39.112H305.456V47.392H296.528Z" fill="#63B1DD"/>
<line x1="304.5" y1="90.5" x2="143.5" y2="90.5" stroke="url(#paint0_linear)" stroke-width="3" stroke-linecap="round" stroke-linejoin="bevel"/>
<defs>
<linearGradient id="paint0_linear" x1="306" y1="89" x2="104.5" y2="89" gradientUnits="userSpaceOnUse">
<stop stop-color="#63B1DD"/>
<stop offset="1" stop-opacity="0"/>
<stop offset="1" stop-color="#63B1DD" stop-opacity="0"/>
</linearGradient>
</defs>
</svg>
