<svg width="40" height="40" viewBox="0 0 40 40" fill="none" xmlns="http://www.w3.org/2000/svg">
<path d="M20 37.5C15.3587 37.5 10.9075 35.6563 7.62563 32.3744C4.34374 29.0925 2.5 24.6413 2.5 20C2.5 15.3587 4.34374 10.9075 7.62563 7.62563C10.9075 4.34374 15.3587 2.5 20 2.5C24.6413 2.5 29.0925 4.34374 32.3744 7.62563C35.6563 10.9075 37.5 15.3587 37.5 20C37.5 24.6413 35.6563 29.0925 32.3744 32.3744C29.0925 35.6563 24.6413 37.5 20 37.5ZM20 40C25.3043 40 30.3914 37.8929 34.1421 34.1421C37.8929 30.3914 40 25.3043 40 20C40 14.6957 37.8929 9.60859 34.1421 5.85786C30.3914 2.10714 25.3043 0 20 0C14.6957 0 9.60859 2.10714 5.85786 5.85786C2.10714 9.60859 0 14.6957 0 20C0 25.3043 2.10714 30.3914 5.85786 34.1421C9.60859 37.8929 14.6957 40 20 40Z" fill="#E3E5EB"/>
<path d="M15.6624 13.1294C15.8623 13.0312 16.0867 12.9875 16.3109 13.0031C16.5351 13.0187 16.7505 13.0931 16.9333 13.2181L25.4878 19.0506C25.6462 19.1585 25.7753 19.3009 25.8644 19.4661C25.9535 19.6312 26 19.8143 26 20.0001C26 20.1858 25.9535 20.3689 25.8644 20.5341C25.7753 20.6992 25.6462 20.8417 25.4878 20.9496L16.9333 26.7821C16.7506 26.9069 16.5353 26.9813 16.3112 26.9969C16.0871 27.0125 15.8628 26.9689 15.6629 26.8707C15.4631 26.7726 15.2955 26.6238 15.1786 26.4406C15.0616 26.2575 14.9998 26.0471 15 25.8326V14.1676C14.9998 13.9532 15.0615 13.7428 15.1783 13.5597C15.2952 13.3765 15.4627 13.2276 15.6624 13.1294Z" fill="#E3E5EB"/>
</svg>
