<svg width="17" height="14" viewBox="0 0 17 14" fill="none" xmlns="http://www.w3.org/2000/svg">
<path d="M11.15 4.26251C12.1164 5.55156 12.1164 8.04847 11.15 9.33752" stroke="#E3E5EB" stroke-width="1.2" stroke-linecap="round" stroke-linejoin="round"/>
<path d="M13.3251 1.72501C16.2164 4.48581 16.2338 9.13234 13.3251 11.875" stroke="#E3E5EB" stroke-width="1.2" stroke-linecap="round" stroke-linejoin="round"/>
<path d="M1 8.9453V4.65401C1 4.23786 1.3248 3.90001 1.725 3.90001H4.32485C4.4208 3.89967 4.51568 3.8799 4.60377 3.8419C4.69186 3.8039 4.77135 3.74844 4.83743 3.67889L7.01243 1.22258C7.46918 0.746984 8.25001 1.08411 8.25001 1.75619V11.8439C8.25001 12.521 7.45976 12.8552 7.00591 12.3702L4.83816 9.92767C4.77188 9.85613 4.6916 9.799 4.60229 9.75984C4.51298 9.72067 4.41657 9.70031 4.31905 9.70002H1.725C1.3248 9.70002 1 9.36217 1 8.9453Z" stroke="#E3E5EB" stroke-width="1.2" stroke-linecap="round" stroke-linejoin="round"/>
</svg>
